<svg width="381" height="90" viewBox="0 0 381 90" fill="none" xmlns="http://www.w3.org/2000/svg">
<path d="M24.4043 21.0117C24.4043 22.0599 24.0625 22.9714 23.3789 23.7461C22.7409 24.5208 21.9661 25.1589 21.0547 25.6602C20.2344 26.1615 19.3913 26.7083 18.5254 27.3008C17.6595 27.8477 16.862 28.4857 16.1328 29.2148C15.4036 29.8984 14.8112 30.6732 14.3555 31.5391C13.8997 32.4049 13.6719 33.3848 13.6719 34.4785C13.6719 35.4355 13.8997 36.3014 14.3555 37.0762C14.8112 37.8509 15.3581 38.6257 15.9961 39.4004C16.6797 40.1296 17.4089 40.9043 18.1836 41.7246C19.0039 42.4993 19.7331 43.388 20.3711 44.3906C21.0547 45.3477 21.6243 46.4414 22.0801 47.6719C22.5358 48.9023 22.7637 50.3379 22.7637 51.9785C22.7637 53.1178 22.513 54.4167 22.0117 55.875C21.556 57.2878 20.918 58.7233 20.0977 60.1816C19.2773 61.64 18.2975 63.0527 17.1582 64.4199C16.0645 65.7871 14.8796 67.0176 13.6035 68.1113C12.373 69.1595 11.0742 70.0026 9.70703 70.6406C8.33984 71.3242 7.01823 71.666 5.74219 71.666C4.32943 71.666 3.07617 71.2786 1.98242 70.5039C0.888672 69.7292 0.341797 68.5671 0.341797 67.0176C0.341797 65.9694 0.592448 65.0124 1.09375 64.1465C1.59505 63.235 2.21029 62.3691 2.93945 61.5488C3.66862 60.7285 4.46615 59.931 5.33203 59.1562C6.24349 58.3815 7.0638 57.6068 7.79297 56.832C8.52214 56.0573 9.13737 55.2598 9.63867 54.4395C10.14 53.5736 10.3906 52.6621 10.3906 51.7051C10.3906 50.3835 9.91211 49.0391 8.95508 47.6719C8.04362 46.2591 7.01823 44.8236 5.87891 43.3652C4.73958 41.8613 3.69141 40.3346 2.73438 38.7852C1.82292 37.2357 1.36719 35.6634 1.36719 34.0684C1.36719 32.1087 1.89128 30.0579 2.93945 27.916C3.98763 25.7285 5.33203 23.7461 6.97266 21.9688C8.61328 20.1458 10.459 18.6419 12.5098 17.457C14.5605 16.2721 16.5885 15.6797 18.5938 15.6797C20.1888 15.6797 21.556 16.1582 22.6953 17.1152C23.8346 18.0723 24.4043 19.3711 24.4043 21.0117ZM42.7246 71.4609C39.4889 71.4609 36.9596 71.028 35.1367 70.1621C33.3594 69.3418 32.015 68.1569 31.1035 66.6074C30.2376 65.0579 29.7135 63.1895 29.5312 61.002C29.349 58.8145 29.2578 56.3763 29.2578 53.6875C29.2578 51.5456 29.3262 49.4036 29.4629 47.2617C29.5996 45.0742 29.8047 42.75 30.0781 40.2891C29.4401 40.2891 28.9388 40.3118 28.5742 40.3574C28.2096 40.3574 27.9134 40.3574 27.6855 40.3574C26.2272 40.3574 24.974 40.0384 23.9258 39.4004C22.832 38.7624 22.2852 37.7826 22.2852 36.4609C22.2852 35.6406 22.6042 34.9115 23.2422 34.2734C23.8346 33.6354 24.6094 33.0885 25.5664 32.6328C26.5234 32.1771 27.5488 31.8125 28.6426 31.5391C29.7819 31.2656 30.8529 31.0833 31.8555 30.9922C31.8555 29.7161 31.9466 28.3034 32.1289 26.7539C32.3112 25.2044 32.6302 23.7689 33.0859 22.4473C33.5872 21.0801 34.248 19.9408 35.0684 19.0293C35.8887 18.1178 36.9368 17.6621 38.2129 17.6621C38.9421 17.6621 39.5801 17.89 40.127 18.3457C40.7194 18.7559 41.1979 19.3027 41.5625 19.9863C41.9271 20.6243 42.2005 21.3535 42.3828 22.1738C42.5651 22.9941 42.6562 23.7917 42.6562 24.5664C42.6562 25.4779 42.5879 26.4121 42.4512 27.3691C42.3145 28.3262 42.0638 29.5111 41.6992 30.9238C42.474 30.8327 42.998 30.7871 43.2715 30.7871C43.5449 30.7415 43.7956 30.7188 44.0234 30.7188C44.7982 30.7188 45.5957 30.7871 46.416 30.9238C47.2819 31.0605 48.0566 31.2884 48.7402 31.6074C49.4694 31.9264 50.0618 32.3594 50.5176 32.9062C50.9733 33.4076 51.2012 34.0228 51.2012 34.752C51.2012 35.5723 50.8594 36.3014 50.1758 36.9395C49.5378 37.5775 48.7174 38.1243 47.7148 38.5801C46.7122 39.0358 45.6413 39.4004 44.502 39.6738C43.3626 39.9017 42.2917 40.0612 41.2891 40.1523C41.0156 42.0208 40.8105 43.7526 40.6738 45.3477C40.5827 46.8971 40.4688 48.4694 40.332 50.0645C40.2409 50.8392 40.1497 51.6367 40.0586 52.457C40.013 53.2318 39.9902 54.0293 39.9902 54.8496C39.9902 55.4421 40.013 56.1484 40.0586 56.9688C40.1042 57.7435 40.2637 58.4954 40.5371 59.2246C40.8105 59.9538 41.2435 60.5918 41.8359 61.1387C42.4284 61.64 43.2487 61.8906 44.2969 61.8906C44.9349 61.8906 45.5957 61.8451 46.2793 61.7539C46.9629 61.6172 47.6465 61.5488 48.3301 61.5488C49.515 61.5488 50.3581 61.959 50.8594 62.7793C51.4062 63.5996 51.6797 64.6478 51.6797 65.9238C51.6797 66.8809 51.3835 67.724 50.791 68.4531C50.2441 69.1367 49.5378 69.6836 48.6719 70.0938C47.806 70.5495 46.8262 70.8913 45.7324 71.1191C44.6842 71.347 43.6816 71.4609 42.7246 71.4609ZM67.8809 88.8926C66.7871 88.8926 65.5339 88.7103 64.1211 88.3457C62.7539 88.0267 61.4551 87.5482 60.2246 86.9102C58.9941 86.2721 57.946 85.4974 57.0801 84.5859C56.2598 83.6745 55.8496 82.6263 55.8496 81.4414C55.8496 80.9857 55.9635 80.5299 56.1914 80.0742C56.4193 79.6185 56.7155 79.2083 57.0801 78.8438C57.4902 78.5247 57.9232 78.2513 58.3789 78.0234C58.8346 77.8411 59.3132 77.75 59.8145 77.75C60.3613 77.75 60.8854 77.8184 61.3867 77.9551C61.9336 78.1374 62.4805 78.3424 63.0273 78.5703C63.6198 78.7982 64.1895 79.0033 64.7363 79.1855C65.3288 79.3678 65.944 79.459 66.582 79.459C67.7214 79.459 68.7012 79.0716 69.5215 78.2969C70.3874 77.5221 71.1165 76.4967 71.709 75.2207C72.3014 73.9902 72.7799 72.6003 73.1445 71.0508C73.5091 69.5469 73.7826 68.043 73.9648 66.5391C74.1927 65.0352 74.3522 63.6224 74.4434 62.3008C74.5345 60.9792 74.6029 59.9082 74.6484 59.0879C73.0534 61.5033 71.4583 63.3717 69.8633 64.6934C68.3138 65.9694 66.3997 66.6074 64.1211 66.6074C62.3893 66.6074 60.8626 66.2428 59.541 65.5137C58.265 64.7845 57.1712 63.8275 56.2598 62.6426C55.3483 61.4577 54.5964 60.1133 54.0039 58.6094C53.4115 57.0599 52.9557 55.4648 52.6367 53.8242C52.3633 52.1836 52.181 50.5885 52.0898 49.0391C51.9987 47.444 51.9987 45.9857 52.0898 44.6641C52.1354 43.6615 52.2493 42.3626 52.4316 40.7676C52.6595 39.127 53.0013 37.5319 53.457 35.9824C53.9128 34.4329 54.5508 33.1341 55.3711 32.0859C56.1914 30.9922 57.2624 30.4909 58.584 30.582C59.4499 30.6276 60.1562 31.015 60.7031 31.7441C61.25 32.4277 61.6829 33.2936 62.002 34.3418C62.3665 35.39 62.6172 36.5521 62.7539 37.8281C62.9362 39.0586 63.0501 40.2891 63.0957 41.5195C63.1413 42.75 63.1413 43.8893 63.0957 44.9375C63.0957 45.9401 63.0957 46.7148 63.0957 47.2617C63.0957 48.0365 63.1185 48.8112 63.1641 49.5859C63.2096 50.3607 63.3691 51.0671 63.6426 51.7051C63.916 52.2975 64.3262 52.776 64.873 53.1406C65.4655 53.5052 66.2858 53.6875 67.334 53.6875C68.5189 53.6875 69.4531 53.3913 70.1367 52.7988C70.8659 52.2064 71.39 51.4772 71.709 50.6113C72.0736 49.6999 72.3014 48.7428 72.3926 47.7402C72.4837 46.6921 72.5293 45.7122 72.5293 44.8008C72.5293 44.1628 72.5293 43.388 72.5293 42.4766C72.5293 41.5651 72.5293 40.6081 72.5293 39.6055C72.5749 38.6029 72.666 37.623 72.8027 36.666C72.985 35.6634 73.2357 34.7747 73.5547 34C73.9193 33.1797 74.375 32.5189 74.9219 32.0176C75.5143 31.5163 76.2663 31.2656 77.1777 31.2656C78.3171 31.2656 79.2969 31.7214 80.1172 32.6328C80.9375 33.4987 81.6211 34.6608 82.168 36.1191C82.7604 37.5319 83.2161 39.1042 83.5352 40.8359C83.8997 42.5677 84.1732 44.2995 84.3555 46.0312C84.5378 47.7174 84.6517 49.2897 84.6973 50.748C84.7884 52.1608 84.834 53.2773 84.834 54.0977C84.834 56.0117 84.7656 58.1992 84.6289 60.6602C84.4922 63.0755 84.2188 65.582 83.8086 68.1797C83.444 70.7318 82.8743 73.2383 82.0996 75.6992C81.3249 78.2057 80.2995 80.4388 79.0234 82.3984C77.793 84.3581 76.2663 85.9303 74.4434 87.1152C72.6204 88.3001 70.4329 88.8926 67.8809 88.8926ZM102.061 27.5742C102.061 30.0352 101.947 32.5189 101.719 35.0254C101.536 37.4863 101.445 39.9701 101.445 42.4766C101.445 45.7122 101.536 48.9479 101.719 52.1836C101.947 55.4193 102.061 58.6777 102.061 61.959C102.061 62.7793 102.015 63.7135 101.924 64.7617C101.833 65.7643 101.605 66.6986 101.24 67.5645C100.921 68.4303 100.42 69.1595 99.7363 69.752C99.0527 70.3444 98.1413 70.6406 97.002 70.6406C95.9082 70.6406 94.9512 70.0938 94.1309 69C93.3561 67.9518 92.6953 66.6074 92.1484 64.9668C91.6471 63.2806 91.2142 61.4121 90.8496 59.3613C90.5306 57.3105 90.2799 55.3281 90.0977 53.4141C89.9609 51.4544 89.847 49.6771 89.7559 48.082C89.7103 46.4414 89.6875 45.2337 89.6875 44.459C89.6875 43.5931 89.7103 42.3398 89.7559 40.6992C89.847 39.0586 90.0065 37.2812 90.2344 35.3672C90.4622 33.4531 90.7585 31.5163 91.123 29.5566C91.5332 27.5514 92.0573 25.7513 92.6953 24.1562C93.3333 22.5156 94.0853 21.194 94.9512 20.1914C95.8626 19.1432 96.9336 18.6191 98.1641 18.6191C99.1667 18.6191 99.9186 18.9609 100.42 19.6445C100.967 20.2826 101.354 21.0801 101.582 22.0371C101.81 22.9486 101.947 23.9284 101.992 24.9766C102.038 25.9792 102.061 26.8451 102.061 27.5742ZM135.898 56.832C135.898 58.3815 135.397 59.9082 134.395 61.4121C133.438 62.8704 132.207 64.1921 130.703 65.377C129.245 66.5163 127.673 67.4505 125.986 68.1797C124.3 68.8633 122.751 69.2051 121.338 69.2051C118.923 69.2051 116.758 68.6126 114.844 67.4277C112.975 66.1973 111.403 64.6478 110.127 62.7793C108.851 60.9108 107.871 58.86 107.188 56.627C106.549 54.3483 106.23 52.138 106.23 49.9961C106.23 47.7174 106.549 45.2793 107.188 42.6816C107.826 40.084 108.783 37.6914 110.059 35.5039C111.38 33.3164 113.021 31.4935 114.98 30.0352C116.986 28.5768 119.355 27.8477 122.09 27.8477C123.639 27.8477 125.12 28.1211 126.533 28.668C127.946 29.1693 129.176 29.8984 130.225 30.8555C131.273 31.8125 132.116 32.9518 132.754 34.2734C133.392 35.5951 133.711 37.0762 133.711 38.7168C133.711 40.8587 133.255 42.8639 132.344 44.7324C131.432 46.6009 130.225 48.2188 128.721 49.5859C127.217 50.9531 125.485 52.0697 123.525 52.9355C121.566 53.7559 119.561 54.2116 117.51 54.3027C117.692 55.6243 118.216 56.5814 119.082 57.1738C119.993 57.7663 121.064 58.0625 122.295 58.0625C123.206 58.0625 124.095 57.8346 124.961 57.3789C125.827 56.9232 126.67 56.4219 127.49 55.875C128.311 55.2826 129.108 54.7585 129.883 54.3027C130.703 53.847 131.523 53.6191 132.344 53.6191C133.255 53.6191 134.076 53.9154 134.805 54.5078C135.534 55.1003 135.898 55.875 135.898 56.832ZM124.824 40.084C124.824 39.4915 124.665 38.8763 124.346 38.2383C124.027 37.6003 123.525 37.2812 122.842 37.2812C121.839 37.2812 120.996 37.5547 120.312 38.1016C119.629 38.6029 119.059 39.2637 118.604 40.084C118.148 40.8587 117.783 41.7018 117.51 42.6133C117.282 43.5247 117.145 44.3678 117.1 45.1426C117.738 45.0059 118.49 44.8236 119.355 44.5957C120.267 44.3678 121.11 44.0716 121.885 43.707C122.705 43.2969 123.389 42.7956 123.936 42.2031C124.528 41.6107 124.824 40.9043 124.824 40.084ZM158.662 31.4023C158.662 32.724 158.206 33.7038 157.295 34.3418C156.429 34.9798 155.449 35.5951 154.355 36.1875C153.262 36.7344 152.259 37.3952 151.348 38.1699C150.482 38.9447 150.049 40.1068 150.049 41.6562C150.049 42.4766 150.231 43.1829 150.596 43.7754C151.006 44.3678 151.484 44.9147 152.031 45.416C152.624 45.8717 153.262 46.3503 153.945 46.8516C154.629 47.3529 155.244 47.9225 155.791 48.5605C156.383 49.1986 156.862 49.9733 157.227 50.8848C157.637 51.7962 157.842 52.9128 157.842 54.2344C157.842 56.1484 157.34 58.0397 156.338 59.9082C155.381 61.7311 154.128 63.3717 152.578 64.8301C151.074 66.2428 149.365 67.3822 147.451 68.248C145.537 69.1139 143.646 69.5469 141.777 69.5469C141.003 69.5469 140.228 69.4785 139.453 69.3418C138.678 69.2507 137.972 69.0456 137.334 68.7266C136.742 68.4076 136.24 67.9746 135.83 67.4277C135.42 66.8353 135.215 66.0833 135.215 65.1719C135.215 63.8958 135.465 62.916 135.967 62.2324C136.468 61.5033 137.106 60.9336 137.881 60.5234C138.656 60.1133 139.476 59.7943 140.342 59.5664C141.253 59.3385 142.096 59.0651 142.871 58.7461C143.646 58.3815 144.284 57.9258 144.785 57.3789C145.286 56.832 145.537 56.0573 145.537 55.0547C145.537 54.0977 145.15 53.1178 144.375 52.1152C143.646 51.0671 142.826 49.9733 141.914 48.834C141.003 47.6491 140.16 46.3958 139.385 45.0742C138.656 43.7526 138.291 42.2943 138.291 40.6992C138.291 38.7396 138.678 36.9395 139.453 35.2988C140.273 33.6126 141.344 32.1543 142.666 30.9238C144.033 29.6934 145.583 28.7363 147.314 28.0527C149.046 27.3236 150.869 26.959 152.783 26.959C153.512 26.959 154.219 27.0273 154.902 27.1641C155.632 27.3008 156.27 27.5514 156.816 27.916C157.363 28.235 157.796 28.6908 158.115 29.2832C158.48 29.8301 158.662 30.5365 158.662 31.4023ZM192.432 51.2949C192.432 52.0697 192.409 53.2318 192.363 54.7812C192.363 56.2852 192.295 57.8802 192.158 59.5664C192.067 61.207 191.93 62.7793 191.748 64.2832C191.566 65.7415 191.338 66.8125 191.064 67.4961C190.7 68.362 190.221 69.1139 189.629 69.752C189.036 70.39 188.239 70.709 187.236 70.709C185.687 70.709 184.57 70.0938 183.887 68.8633C183.203 67.6328 182.747 66.1061 182.52 64.2832C182.292 62.4603 182.201 60.4779 182.246 58.3359C182.292 56.194 182.269 54.2116 182.178 52.3887C182.087 50.5658 181.836 49.0391 181.426 47.8086C181.016 46.5781 180.264 45.9629 179.17 45.9629C177.666 45.9629 176.504 46.2135 175.684 46.7148C174.909 47.1706 174.339 47.7858 173.975 48.5605C173.656 49.3353 173.451 50.224 173.359 51.2266C173.314 52.2292 173.245 53.2773 173.154 54.3711C173.063 55.4193 172.995 56.832 172.949 58.6094C172.904 60.3867 172.699 62.1413 172.334 63.873C171.969 65.6048 171.354 67.1087 170.488 68.3848C169.668 69.6152 168.438 70.2305 166.797 70.2305C165.794 70.2305 164.974 69.8431 164.336 69.0684C163.743 68.2936 163.265 67.291 162.9 66.0605C162.536 64.8301 162.262 63.4629 162.08 61.959C161.943 60.4551 161.852 58.9967 161.807 57.584C161.807 56.1257 161.807 54.804 161.807 53.6191C161.852 52.4342 161.875 51.5456 161.875 50.9531C161.875 50.0417 161.898 48.5378 161.943 46.4414C162.035 44.3451 162.194 42.0208 162.422 39.4688C162.65 36.8711 162.946 34.2051 163.311 31.4707C163.675 28.7363 164.154 26.2526 164.746 24.0195C165.339 21.7409 166.045 19.8952 166.865 18.4824C167.731 17.0697 168.734 16.3861 169.873 16.4316C170.602 16.4772 171.217 16.7962 171.719 17.3887C172.266 17.9811 172.699 18.7559 173.018 19.7129C173.382 20.6243 173.678 21.627 173.906 22.7207C174.134 23.8145 174.294 24.9082 174.385 26.002C174.521 27.0501 174.59 28.0299 174.59 28.9414C174.635 29.8529 174.658 30.5592 174.658 31.0605C174.658 32.2454 174.635 33.4303 174.59 34.6152C174.544 35.8001 174.476 36.985 174.385 38.1699C175.433 36.7572 176.823 35.5951 178.555 34.6836C180.332 33.7721 182.109 33.3164 183.887 33.3164C186.165 33.3164 187.874 33.9544 189.014 35.2305C190.199 36.4609 191.042 38.0104 191.543 39.8789C192.044 41.7018 192.318 43.6615 192.363 45.7578C192.409 47.8086 192.432 49.6543 192.432 51.2949ZM225.928 56.832C225.928 58.3815 225.426 59.9082 224.424 61.4121C223.467 62.8704 222.236 64.1921 220.732 65.377C219.274 66.5163 217.702 67.4505 216.016 68.1797C214.329 68.8633 212.78 69.2051 211.367 69.2051C208.952 69.2051 206.787 68.6126 204.873 67.4277C203.005 66.1973 201.432 64.6478 200.156 62.7793C198.88 60.9108 197.9 58.86 197.217 56.627C196.579 54.3483 196.26 52.138 196.26 49.9961C196.26 47.7174 196.579 45.2793 197.217 42.6816C197.855 40.084 198.812 37.6914 200.088 35.5039C201.41 33.3164 203.05 31.4935 205.01 30.0352C207.015 28.5768 209.385 27.8477 212.119 27.8477C213.669 27.8477 215.15 28.1211 216.562 28.668C217.975 29.1693 219.206 29.8984 220.254 30.8555C221.302 31.8125 222.145 32.9518 222.783 34.2734C223.421 35.5951 223.74 37.0762 223.74 38.7168C223.74 40.8587 223.285 42.8639 222.373 44.7324C221.462 46.6009 220.254 48.2188 218.75 49.5859C217.246 50.9531 215.514 52.0697 213.555 52.9355C211.595 53.7559 209.59 54.2116 207.539 54.3027C207.721 55.6243 208.245 56.5814 209.111 57.1738C210.023 57.7663 211.094 58.0625 212.324 58.0625C213.236 58.0625 214.124 57.8346 214.99 57.3789C215.856 56.9232 216.699 56.4219 217.52 55.875C218.34 55.2826 219.137 54.7585 219.912 54.3027C220.732 53.847 221.553 53.6191 222.373 53.6191C223.285 53.6191 224.105 53.9154 224.834 54.5078C225.563 55.1003 225.928 55.875 225.928 56.832ZM214.854 40.084C214.854 39.4915 214.694 38.8763 214.375 38.2383C214.056 37.6003 213.555 37.2812 212.871 37.2812C211.868 37.2812 211.025 37.5547 210.342 38.1016C209.658 38.6029 209.089 39.2637 208.633 40.084C208.177 40.8587 207.812 41.7018 207.539 42.6133C207.311 43.5247 207.174 44.3678 207.129 45.1426C207.767 45.0059 208.519 44.8236 209.385 44.5957C210.296 44.3678 211.139 44.0716 211.914 43.707C212.734 43.2969 213.418 42.7956 213.965 42.2031C214.557 41.6107 214.854 40.9043 214.854 40.084ZM257.305 56.832C257.305 58.3815 256.803 59.9082 255.801 61.4121C254.844 62.8704 253.613 64.1921 252.109 65.377C250.651 66.5163 249.079 67.4505 247.393 68.1797C245.706 68.8633 244.157 69.2051 242.744 69.2051C240.329 69.2051 238.164 68.6126 236.25 67.4277C234.382 66.1973 232.809 64.6478 231.533 62.7793C230.257 60.9108 229.277 58.86 228.594 56.627C227.956 54.3483 227.637 52.138 227.637 49.9961C227.637 47.7174 227.956 45.2793 228.594 42.6816C229.232 40.084 230.189 37.6914 231.465 35.5039C232.786 33.3164 234.427 31.4935 236.387 30.0352C238.392 28.5768 240.762 27.8477 243.496 27.8477C245.046 27.8477 246.527 28.1211 247.939 28.668C249.352 29.1693 250.583 29.8984 251.631 30.8555C252.679 31.8125 253.522 32.9518 254.16 34.2734C254.798 35.5951 255.117 37.0762 255.117 38.7168C255.117 40.8587 254.661 42.8639 253.75 44.7324C252.839 46.6009 251.631 48.2188 250.127 49.5859C248.623 50.9531 246.891 52.0697 244.932 52.9355C242.972 53.7559 240.967 54.2116 238.916 54.3027C239.098 55.6243 239.622 56.5814 240.488 57.1738C241.4 57.7663 242.471 58.0625 243.701 58.0625C244.613 58.0625 245.501 57.8346 246.367 57.3789C247.233 56.9232 248.076 56.4219 248.896 55.875C249.717 55.2826 250.514 54.7585 251.289 54.3027C252.109 53.847 252.93 53.6191 253.75 53.6191C254.661 53.6191 255.482 53.9154 256.211 54.5078C256.94 55.1003 257.305 55.875 257.305 56.832ZM246.23 40.084C246.23 39.4915 246.071 38.8763 245.752 38.2383C245.433 37.6003 244.932 37.2812 244.248 37.2812C243.245 37.2812 242.402 37.5547 241.719 38.1016C241.035 38.6029 240.465 39.2637 240.01 40.084C239.554 40.8587 239.189 41.7018 238.916 42.6133C238.688 43.5247 238.551 44.3678 238.506 45.1426C239.144 45.0059 239.896 44.8236 240.762 44.5957C241.673 44.3678 242.516 44.0716 243.291 43.707C244.111 43.2969 244.795 42.7956 245.342 42.2031C245.934 41.6107 246.23 40.9043 246.23 40.084ZM275.967 71.4609C272.731 71.4609 270.202 71.028 268.379 70.1621C266.602 69.3418 265.257 68.1569 264.346 66.6074C263.48 65.0579 262.956 63.1895 262.773 61.002C262.591 58.8145 262.5 56.3763 262.5 53.6875C262.5 51.5456 262.568 49.4036 262.705 47.2617C262.842 45.0742 263.047 42.75 263.32 40.2891C262.682 40.2891 262.181 40.3118 261.816 40.3574C261.452 40.3574 261.156 40.3574 260.928 40.3574C259.469 40.3574 258.216 40.0384 257.168 39.4004C256.074 38.7624 255.527 37.7826 255.527 36.4609C255.527 35.6406 255.846 34.9115 256.484 34.2734C257.077 33.6354 257.852 33.0885 258.809 32.6328C259.766 32.1771 260.791 31.8125 261.885 31.5391C263.024 31.2656 264.095 31.0833 265.098 30.9922C265.098 29.7161 265.189 28.3034 265.371 26.7539C265.553 25.2044 265.872 23.7689 266.328 22.4473C266.829 21.0801 267.49 19.9408 268.311 19.0293C269.131 18.1178 270.179 17.6621 271.455 17.6621C272.184 17.6621 272.822 17.89 273.369 18.3457C273.962 18.7559 274.44 19.3027 274.805 19.9863C275.169 20.6243 275.443 21.3535 275.625 22.1738C275.807 22.9941 275.898 23.7917 275.898 24.5664C275.898 25.4779 275.83 26.4121 275.693 27.3691C275.557 28.3262 275.306 29.5111 274.941 30.9238C275.716 30.8327 276.24 30.7871 276.514 30.7871C276.787 30.7415 277.038 30.7188 277.266 30.7188C278.04 30.7188 278.838 30.7871 279.658 30.9238C280.524 31.0605 281.299 31.2884 281.982 31.6074C282.712 31.9264 283.304 32.3594 283.76 32.9062C284.215 33.4076 284.443 34.0228 284.443 34.752C284.443 35.5723 284.102 36.3014 283.418 36.9395C282.78 37.5775 281.96 38.1243 280.957 38.5801C279.954 39.0358 278.883 39.4004 277.744 39.6738C276.605 39.9017 275.534 40.0612 274.531 40.1523C274.258 42.0208 274.053 43.7526 273.916 45.3477C273.825 46.8971 273.711 48.4694 273.574 50.0645C273.483 50.8392 273.392 51.6367 273.301 52.457C273.255 53.2318 273.232 54.0293 273.232 54.8496C273.232 55.4421 273.255 56.1484 273.301 56.9688C273.346 57.7435 273.506 58.4954 273.779 59.2246C274.053 59.9538 274.486 60.5918 275.078 61.1387C275.671 61.64 276.491 61.8906 277.539 61.8906C278.177 61.8906 278.838 61.8451 279.521 61.7539C280.205 61.6172 280.889 61.5488 281.572 61.5488C282.757 61.5488 283.6 61.959 284.102 62.7793C284.648 63.5996 284.922 64.6478 284.922 65.9238C284.922 66.8809 284.626 67.724 284.033 68.4531C283.486 69.1367 282.78 69.6836 281.914 70.0938C281.048 70.5495 280.068 70.8913 278.975 71.1191C277.926 71.347 276.924 71.4609 275.967 71.4609Z" fill="#F6B70F"/>
<path d="M313.824 62.5547C313.824 62.9323 313.792 63.362 313.727 63.8438C313.674 64.3125 313.583 64.7943 313.453 65.2891C313.336 65.7839 313.173 66.2656 312.965 66.7344C312.77 67.2031 312.522 67.6263 312.223 68.0039C311.936 68.3685 311.598 68.6615 311.207 68.8828C310.829 69.1042 310.387 69.2148 309.879 69.2148C309.345 69.2148 308.857 69.0911 308.414 68.8438C307.984 68.5964 307.613 68.2578 307.301 67.8281C307.262 68.1797 307.118 68.4922 306.871 68.7656C306.624 69.026 306.311 69.1562 305.934 69.1562C305.712 69.1562 305.523 69.0456 305.367 68.8242C305.224 68.6029 305.107 68.3229 305.016 67.9844C304.924 67.6328 304.853 67.2487 304.801 66.832C304.762 66.4154 304.736 66.0117 304.723 65.6211C304.71 65.2305 304.703 64.8789 304.703 64.5664C304.703 64.2539 304.703 64.0326 304.703 63.9023C304.703 63.4596 304.703 63.0169 304.703 62.5742C304.716 62.1315 304.729 61.6823 304.742 61.2266C304.742 61.0052 304.736 60.6732 304.723 60.2305C304.723 59.7878 304.729 59.2995 304.742 58.7656C304.755 58.2188 304.781 57.6654 304.82 57.1055C304.872 56.5326 304.957 56.0117 305.074 55.543C305.191 55.0742 305.354 54.6901 305.562 54.3906C305.771 54.0911 306.038 53.9349 306.363 53.9219C306.624 53.9219 306.845 54.013 307.027 54.1953C307.21 54.3776 307.359 54.6185 307.477 54.918C307.607 55.2174 307.704 55.556 307.77 55.9336C307.848 56.2982 307.9 56.6693 307.926 57.0469C307.965 57.4115 307.984 57.763 307.984 58.1016C307.997 58.4271 308.004 58.694 308.004 58.9023C308.004 58.9414 307.997 59.0326 307.984 59.1758C307.984 59.306 307.984 59.4492 307.984 59.6055C307.984 59.7617 307.984 59.9049 307.984 60.0352C307.984 60.1523 307.984 60.2174 307.984 60.2305C308.102 59.9831 308.271 59.7422 308.492 59.5078C308.714 59.2734 308.961 59.0651 309.234 58.8828C309.508 58.7005 309.794 58.5508 310.094 58.4336C310.393 58.3164 310.68 58.2578 310.953 58.2578C311.5 58.2578 311.956 58.401 312.32 58.6875C312.698 58.9609 312.997 59.3125 313.219 59.7422C313.44 60.1719 313.596 60.6406 313.688 61.1484C313.779 61.6432 313.824 62.112 313.824 62.5547ZM310.953 63.1406C310.953 62.9844 310.94 62.8151 310.914 62.6328C310.901 62.4505 310.855 62.2812 310.777 62.125C310.712 61.9688 310.615 61.8385 310.484 61.7344C310.367 61.6302 310.211 61.5781 310.016 61.5781C309.807 61.5781 309.599 61.6237 309.391 61.7148C309.195 61.806 309.007 61.9232 308.824 62.0664C308.642 62.2096 308.473 62.3659 308.316 62.5352C308.16 62.6914 308.023 62.8477 307.906 63.0039L307.711 64.7422C307.919 65.0417 308.173 65.2826 308.473 65.4648C308.772 65.6341 309.111 65.7188 309.488 65.7188C309.775 65.7188 310.009 65.6276 310.191 65.4453C310.387 65.263 310.536 65.0417 310.641 64.7812C310.758 64.5078 310.836 64.2214 310.875 63.9219C310.927 63.6224 310.953 63.362 310.953 63.1406ZM319.254 74.6836C318.941 74.6836 318.583 74.6315 318.18 74.5273C317.789 74.4362 317.418 74.2995 317.066 74.1172C316.715 73.9349 316.415 73.7135 316.168 73.4531C315.934 73.1927 315.816 72.8932 315.816 72.5547C315.816 72.4245 315.849 72.2943 315.914 72.1641C315.979 72.0339 316.064 71.9167 316.168 71.8125C316.285 71.7214 316.409 71.6432 316.539 71.5781C316.669 71.526 316.806 71.5 316.949 71.5C317.105 71.5 317.255 71.5195 317.398 71.5586C317.555 71.6107 317.711 71.6693 317.867 71.7344C318.036 71.7995 318.199 71.8581 318.355 71.9102C318.525 71.9622 318.701 71.9883 318.883 71.9883C319.208 71.9883 319.488 71.8776 319.723 71.6562C319.97 71.4349 320.178 71.1419 320.348 70.7773C320.517 70.4258 320.654 70.0286 320.758 69.5859C320.862 69.1562 320.94 68.7266 320.992 68.2969C321.057 67.8672 321.103 67.4635 321.129 67.0859C321.155 66.7083 321.174 66.4023 321.188 66.168C320.732 66.8581 320.276 67.3919 319.82 67.7695C319.378 68.1341 318.831 68.3164 318.18 68.3164C317.685 68.3164 317.249 68.2122 316.871 68.0039C316.507 67.7956 316.194 67.5221 315.934 67.1836C315.673 66.8451 315.458 66.4609 315.289 66.0312C315.12 65.5885 314.99 65.1328 314.898 64.6641C314.82 64.1953 314.768 63.7396 314.742 63.2969C314.716 62.8411 314.716 62.4245 314.742 62.0469C314.755 61.7604 314.788 61.3893 314.84 60.9336C314.905 60.4648 315.003 60.0091 315.133 59.5664C315.263 59.1237 315.445 58.7526 315.68 58.4531C315.914 58.1406 316.22 57.9974 316.598 58.0234C316.845 58.0365 317.047 58.1471 317.203 58.3555C317.359 58.5508 317.483 58.7982 317.574 59.0977C317.678 59.3971 317.75 59.7292 317.789 60.0938C317.841 60.4453 317.874 60.7969 317.887 61.1484C317.9 61.5 317.9 61.8255 317.887 62.125C317.887 62.4115 317.887 62.6328 317.887 62.7891C317.887 63.0104 317.893 63.2318 317.906 63.4531C317.919 63.6745 317.965 63.8763 318.043 64.0586C318.121 64.2279 318.238 64.3646 318.395 64.4688C318.564 64.5729 318.798 64.625 319.098 64.625C319.436 64.625 319.703 64.5404 319.898 64.3711C320.107 64.2018 320.257 63.9935 320.348 63.7461C320.452 63.4857 320.517 63.2122 320.543 62.9258C320.569 62.6263 320.582 62.3464 320.582 62.0859C320.582 61.9036 320.582 61.6823 320.582 61.4219C320.582 61.1615 320.582 60.888 320.582 60.6016C320.595 60.3151 320.621 60.0352 320.66 59.7617C320.712 59.4753 320.784 59.2214 320.875 59C320.979 58.7656 321.109 58.5768 321.266 58.4336C321.435 58.2904 321.65 58.2188 321.91 58.2188C322.236 58.2188 322.516 58.349 322.75 58.6094C322.984 58.8568 323.18 59.1888 323.336 59.6055C323.505 60.0091 323.635 60.4583 323.727 60.9531C323.831 61.4479 323.909 61.9427 323.961 62.4375C324.013 62.9193 324.046 63.3685 324.059 63.7852C324.085 64.1888 324.098 64.5078 324.098 64.7422C324.098 65.2891 324.078 65.9141 324.039 66.6172C324 67.3073 323.922 68.0234 323.805 68.7656C323.701 69.4948 323.538 70.2109 323.316 70.9141C323.095 71.6302 322.802 72.2682 322.438 72.8281C322.086 73.388 321.65 73.8372 321.129 74.1758C320.608 74.5143 319.983 74.6836 319.254 74.6836ZM343.434 66.8711C343.395 67.2096 343.336 67.5417 343.258 67.8672C343.193 68.1927 343.108 68.4857 343.004 68.7461C342.9 68.9935 342.763 69.1888 342.594 69.332C342.438 69.4883 342.255 69.5664 342.047 69.5664C341.839 69.5664 341.65 69.4036 341.48 69.0781C341.311 68.7656 341.148 68.349 340.992 67.8281C340.849 67.2943 340.712 66.6953 340.582 66.0312C340.465 65.3672 340.354 64.6966 340.25 64.0195C340.159 63.3294 340.081 62.6589 340.016 62.0078C339.951 61.3568 339.898 60.7904 339.859 60.3086C339.781 60.8034 339.69 61.3568 339.586 61.9688C339.482 62.5807 339.358 63.2057 339.215 63.8438C339.072 64.4688 338.915 65.0872 338.746 65.6992C338.577 66.2982 338.395 66.8385 338.199 67.3203C338.004 67.7891 337.796 68.1667 337.574 68.4531C337.353 68.7396 337.118 68.8828 336.871 68.8828C336.65 68.8828 336.428 68.7331 336.207 68.4336C335.986 68.1341 335.771 67.7435 335.562 67.2617C335.354 66.7669 335.159 66.2201 334.977 65.6211C334.794 65.0221 334.625 64.4232 334.469 63.8242C334.312 63.2122 334.176 62.6393 334.059 62.1055C333.941 61.5586 333.85 61.1029 333.785 60.7383C333.785 61.0117 333.779 61.3177 333.766 61.6562C333.766 61.9818 333.766 62.2161 333.766 62.3594C333.766 62.4245 333.759 62.6393 333.746 63.0039C333.746 63.3685 333.727 63.8047 333.688 64.3125C333.648 64.8203 333.59 65.3672 333.512 65.9531C333.434 66.526 333.316 67.0599 333.16 67.5547C333.017 68.0495 332.835 68.4661 332.613 68.8047C332.392 69.1432 332.118 69.3255 331.793 69.3516C331.533 69.2344 331.311 69.0391 331.129 68.7656C330.96 68.4792 330.816 68.1471 330.699 67.7695C330.582 67.3919 330.491 66.9883 330.426 66.5586C330.361 66.1289 330.309 65.7122 330.27 65.3086C330.23 64.8919 330.204 64.5078 330.191 64.1562C330.191 63.8047 330.191 63.5182 330.191 63.2969C330.191 62.9062 330.211 62.418 330.25 61.832C330.302 61.2331 330.38 60.6081 330.484 59.957C330.589 59.306 330.725 58.6549 330.895 58.0039C331.064 57.3529 331.266 56.7734 331.5 56.2656C331.747 55.7448 332.027 55.3216 332.34 54.9961C332.665 54.6706 333.036 54.5078 333.453 54.5078C333.648 54.5078 333.857 54.6185 334.078 54.8398C334.299 55.0612 334.521 55.3542 334.742 55.7188C334.964 56.0703 335.178 56.4674 335.387 56.9102C335.595 57.3529 335.79 57.8021 335.973 58.2578C336.168 58.7005 336.337 59.1302 336.48 59.5469C336.624 59.9505 336.741 60.2956 336.832 60.582C336.936 60.2695 337.066 59.9049 337.223 59.4883C337.379 59.0716 337.548 58.6419 337.73 58.1992C337.926 57.7435 338.134 57.3008 338.355 56.8711C338.59 56.4284 338.831 56.0378 339.078 55.6992C339.326 55.3477 339.573 55.0677 339.82 54.8594C340.081 54.638 340.341 54.5273 340.602 54.5273C341.057 54.5273 341.448 54.6966 341.773 55.0352C342.099 55.3737 342.372 55.8164 342.594 56.3633C342.815 56.8971 342.991 57.5026 343.121 58.1797C343.251 58.8438 343.349 59.5078 343.414 60.1719C343.492 60.8229 343.538 61.4349 343.551 62.0078C343.577 62.5807 343.59 63.043 343.59 63.3945C343.59 63.5378 343.59 63.7331 343.59 63.9805C343.59 64.2279 343.583 64.5078 343.57 64.8203C343.57 65.1328 343.557 65.4648 343.531 65.8164C343.505 66.168 343.473 66.5195 343.434 66.8711ZM353.277 66.2461C353.277 66.4805 353.264 66.7865 353.238 67.1641C353.225 67.5417 353.173 67.9128 353.082 68.2773C352.991 68.6289 352.848 68.9349 352.652 69.1953C352.457 69.4557 352.184 69.5859 351.832 69.5859C351.35 69.5859 350.979 69.4297 350.719 69.1172C350.458 68.8047 350.335 68.4141 350.348 67.9453C349.931 68.3099 349.456 68.5964 348.922 68.8047C348.401 69.013 347.867 69.1172 347.32 69.1172C346.943 69.1172 346.585 69.026 346.246 68.8438C345.908 68.6615 345.608 68.4271 345.348 68.1406C345.087 67.8542 344.879 67.5352 344.723 67.1836C344.566 66.819 344.488 66.4609 344.488 66.1094C344.488 65.4844 344.677 64.9375 345.055 64.4688C345.445 64 345.921 63.6029 346.48 63.2773C347.04 62.9388 347.633 62.6719 348.258 62.4766C348.896 62.2812 349.462 62.151 349.957 62.0859C349.957 62.0208 349.957 61.9622 349.957 61.9102C349.97 61.8581 349.977 61.7995 349.977 61.7344C349.977 61.3307 349.866 61.0052 349.645 60.7578C349.423 60.5104 349.111 60.3867 348.707 60.3867C348.382 60.3867 348.102 60.4453 347.867 60.5625C347.633 60.6667 347.411 60.7904 347.203 60.9336C346.995 61.0638 346.786 61.1875 346.578 61.3047C346.37 61.4089 346.135 61.4609 345.875 61.4609C345.589 61.4609 345.341 61.3698 345.133 61.1875C344.938 61.0052 344.84 60.7708 344.84 60.4844C344.84 60.0547 344.964 59.6641 345.211 59.3125C345.471 58.9609 345.79 58.668 346.168 58.4336C346.559 58.1862 346.975 57.9974 347.418 57.8672C347.874 57.724 348.29 57.6523 348.668 57.6523C349.02 57.6523 349.371 57.6979 349.723 57.7891C350.074 57.8672 350.406 57.9974 350.719 58.1797C351.031 58.349 351.311 58.5638 351.559 58.8242C351.819 59.0716 352.027 59.3646 352.184 59.7031C352.418 60.1849 352.607 60.6992 352.75 61.2461C352.893 61.7799 353.004 62.3333 353.082 62.9062C353.16 63.4661 353.212 64.0326 353.238 64.6055C353.264 65.1654 353.277 65.7122 353.277 66.2461ZM350.152 65.6211L350.094 64.293C350.068 64.293 350.042 64.293 350.016 64.293C349.99 64.2799 349.964 64.2734 349.938 64.2734C349.768 64.2734 349.553 64.319 349.293 64.4102C349.046 64.4883 348.805 64.6055 348.57 64.7617C348.336 64.9049 348.134 65.0677 347.965 65.25C347.809 65.4323 347.73 65.6211 347.73 65.8164C347.73 65.9987 347.796 66.1224 347.926 66.1875C348.056 66.2526 348.206 66.2852 348.375 66.2852C348.661 66.2852 348.967 66.2135 349.293 66.0703C349.618 65.9141 349.905 65.7643 350.152 65.6211ZM359 69.7031C358.076 69.7031 357.353 69.5794 356.832 69.332C356.324 69.0977 355.94 68.7591 355.68 68.3164C355.432 67.8737 355.283 67.3398 355.23 66.7148C355.178 66.0898 355.152 65.3932 355.152 64.625C355.152 64.013 355.172 63.401 355.211 62.7891C355.25 62.1641 355.309 61.5 355.387 60.7969C355.204 60.7969 355.061 60.8034 354.957 60.8164C354.853 60.8164 354.768 60.8164 354.703 60.8164C354.286 60.8164 353.928 60.7253 353.629 60.543C353.316 60.3607 353.16 60.0807 353.16 59.7031C353.16 59.4688 353.251 59.2604 353.434 59.0781C353.603 58.8958 353.824 58.7396 354.098 58.6094C354.371 58.4792 354.664 58.375 354.977 58.2969C355.302 58.2188 355.608 58.1667 355.895 58.1406C355.895 57.776 355.921 57.3724 355.973 56.9297C356.025 56.487 356.116 56.0768 356.246 55.6992C356.389 55.3086 356.578 54.9831 356.812 54.7227C357.047 54.4622 357.346 54.332 357.711 54.332C357.919 54.332 358.102 54.3971 358.258 54.5273C358.427 54.6445 358.564 54.8008 358.668 54.9961C358.772 55.1784 358.85 55.3867 358.902 55.6211C358.954 55.8555 358.98 56.0833 358.98 56.3047C358.98 56.5651 358.961 56.832 358.922 57.1055C358.883 57.3789 358.811 57.7174 358.707 58.1211C358.928 58.0951 359.078 58.082 359.156 58.082C359.234 58.069 359.306 58.0625 359.371 58.0625C359.592 58.0625 359.82 58.082 360.055 58.1211C360.302 58.1602 360.523 58.2253 360.719 58.3164C360.927 58.4076 361.096 58.5312 361.227 58.6875C361.357 58.8307 361.422 59.0065 361.422 59.2148C361.422 59.4492 361.324 59.6576 361.129 59.8398C360.947 60.0221 360.712 60.1784 360.426 60.3086C360.139 60.4388 359.833 60.543 359.508 60.6211C359.182 60.6862 358.876 60.7318 358.59 60.7578C358.512 61.2917 358.453 61.7865 358.414 62.2422C358.388 62.6849 358.355 63.1341 358.316 63.5898C358.29 63.8112 358.264 64.0391 358.238 64.2734C358.225 64.4948 358.219 64.7227 358.219 64.957C358.219 65.1263 358.225 65.3281 358.238 65.5625C358.251 65.7839 358.297 65.9987 358.375 66.207C358.453 66.4154 358.577 66.5977 358.746 66.7539C358.915 66.8971 359.15 66.9688 359.449 66.9688C359.632 66.9688 359.82 66.9557 360.016 66.9297C360.211 66.8906 360.406 66.8711 360.602 66.8711C360.94 66.8711 361.181 66.9883 361.324 67.2227C361.48 67.457 361.559 67.7565 361.559 68.1211C361.559 68.3945 361.474 68.6354 361.305 68.8438C361.148 69.0391 360.947 69.1953 360.699 69.3125C360.452 69.4427 360.172 69.5404 359.859 69.6055C359.56 69.6706 359.273 69.7031 359 69.7031ZM365.172 55.3672C365.172 55.5495 365.12 55.7122 365.016 55.8555C364.924 55.9987 364.801 56.1289 364.645 56.2461C364.488 56.3503 364.319 56.4349 364.137 56.5C363.954 56.5521 363.785 56.5781 363.629 56.5781C363.368 56.5781 363.141 56.513 362.945 56.3828C362.75 56.2526 362.652 56.0508 362.652 55.7773C362.652 55.582 362.698 55.4128 362.789 55.2695C362.893 55.1133 363.017 54.9896 363.16 54.8984C363.303 54.7943 363.466 54.7161 363.648 54.6641C363.831 54.612 364.007 54.5859 364.176 54.5859C364.423 54.5859 364.651 54.6445 364.859 54.7617C365.068 54.8789 365.172 55.0807 365.172 55.3672ZM365.328 62.0078C365.328 62.1901 365.328 62.3854 365.328 62.5938C365.328 62.7891 365.322 62.9779 365.309 63.1602C365.296 63.3815 365.289 63.681 365.289 64.0586C365.289 64.4232 365.276 64.8203 365.25 65.25C365.224 65.6797 365.178 66.1159 365.113 66.5586C365.061 67.0013 364.97 67.4049 364.84 67.7695C364.71 68.1341 364.534 68.4336 364.312 68.668C364.104 68.8893 363.837 69.0065 363.512 69.0195C363.264 69.0326 363.056 68.9349 362.887 68.7266C362.717 68.5182 362.574 68.2513 362.457 67.9258C362.353 67.5872 362.275 67.2161 362.223 66.8125C362.171 66.3958 362.132 65.9987 362.105 65.6211C362.079 65.2305 362.066 64.8724 362.066 64.5469C362.066 64.2214 362.066 63.9805 362.066 63.8242C362.066 63.6159 362.066 63.3229 362.066 62.9453C362.066 62.5547 362.079 62.138 362.105 61.6953C362.132 61.2526 362.177 60.8034 362.242 60.3477C362.32 59.8919 362.424 59.4753 362.555 59.0977C362.698 58.7201 362.88 58.4141 363.102 58.1797C363.323 57.9453 363.603 57.8281 363.941 57.8281C364.293 57.8281 364.56 58.0039 364.742 58.3555C364.924 58.707 365.061 59.1172 365.152 59.5859C365.243 60.0547 365.296 60.5234 365.309 60.9922C365.322 61.4479 365.328 61.7865 365.328 62.0078ZM370.035 55.5625C370.035 55.7448 369.983 55.9141 369.879 56.0703C369.775 56.2135 369.645 56.3372 369.488 56.4414C369.332 56.5456 369.163 56.6302 368.98 56.6953C368.798 56.7474 368.629 56.7734 368.473 56.7734C368.212 56.7734 367.984 56.7083 367.789 56.5781C367.594 56.4479 367.496 56.2461 367.496 55.9727C367.496 55.7773 367.542 55.6081 367.633 55.4648C367.737 55.3086 367.861 55.1849 368.004 55.0938C368.16 54.9896 368.323 54.9115 368.492 54.8594C368.674 54.8073 368.85 54.7812 369.02 54.7812C369.267 54.7812 369.495 54.8464 369.703 54.9766C369.924 55.0938 370.035 55.2891 370.035 55.5625ZM370.406 64.0391C370.406 64.651 370.387 65.3346 370.348 66.0898C370.322 66.832 370.243 67.5807 370.113 68.3359C369.996 69.0911 369.807 69.8073 369.547 70.4844C369.286 71.1615 368.922 71.7279 368.453 72.1836C368.193 72.431 367.887 72.6914 367.535 72.9648C367.184 73.2383 366.806 73.4922 366.402 73.7266C366.012 73.9609 365.615 74.1497 365.211 74.293C364.807 74.4492 364.423 74.5273 364.059 74.5273C363.642 74.5273 363.336 74.4102 363.141 74.1758C362.932 73.9544 362.828 73.6419 362.828 73.2383C362.828 72.8216 362.939 72.5091 363.16 72.3008C363.382 72.0924 363.655 71.9102 363.98 71.7539C364.306 71.5977 364.664 71.4219 365.055 71.2266C365.432 71.0443 365.784 70.7643 366.109 70.3867C366.435 70.0091 366.708 69.5013 366.93 68.8633C367.151 68.2122 367.262 67.3594 367.262 66.3047C367.262 65.6406 367.249 64.9896 367.223 64.3516C367.197 63.7135 367.158 63.0625 367.105 62.3984C367.079 62.0208 367.053 61.6432 367.027 61.2656C367.001 60.875 366.988 60.4909 366.988 60.1133C366.988 59.8789 367.021 59.6315 367.086 59.3711C367.151 59.1107 367.249 58.8763 367.379 58.668C367.509 58.4466 367.672 58.2708 367.867 58.1406C368.076 57.9974 368.323 57.9258 368.609 57.9258C368.935 57.9258 369.202 58.0495 369.41 58.2969C369.632 58.5443 369.807 58.8633 369.938 59.2539C370.081 59.6315 370.178 60.0612 370.23 60.543C370.296 61.0117 370.341 61.474 370.367 61.9297C370.393 62.3724 370.406 62.7826 370.406 63.1602C370.406 63.5378 370.406 63.8307 370.406 64.0391ZM380.289 66.2461C380.289 66.4805 380.276 66.7865 380.25 67.1641C380.237 67.5417 380.185 67.9128 380.094 68.2773C380.003 68.6289 379.859 68.9349 379.664 69.1953C379.469 69.4557 379.195 69.5859 378.844 69.5859C378.362 69.5859 377.991 69.4297 377.73 69.1172C377.47 68.8047 377.346 68.4141 377.359 67.9453C376.943 68.3099 376.467 68.5964 375.934 68.8047C375.413 69.013 374.879 69.1172 374.332 69.1172C373.954 69.1172 373.596 69.026 373.258 68.8438C372.919 68.6615 372.62 68.4271 372.359 68.1406C372.099 67.8542 371.891 67.5352 371.734 67.1836C371.578 66.819 371.5 66.4609 371.5 66.1094C371.5 65.4844 371.689 64.9375 372.066 64.4688C372.457 64 372.932 63.6029 373.492 63.2773C374.052 62.9388 374.645 62.6719 375.27 62.4766C375.908 62.2812 376.474 62.151 376.969 62.0859C376.969 62.0208 376.969 61.9622 376.969 61.9102C376.982 61.8581 376.988 61.7995 376.988 61.7344C376.988 61.3307 376.878 61.0052 376.656 60.7578C376.435 60.5104 376.122 60.3867 375.719 60.3867C375.393 60.3867 375.113 60.4453 374.879 60.5625C374.645 60.6667 374.423 60.7904 374.215 60.9336C374.007 61.0638 373.798 61.1875 373.59 61.3047C373.382 61.4089 373.147 61.4609 372.887 61.4609C372.6 61.4609 372.353 61.3698 372.145 61.1875C371.949 61.0052 371.852 60.7708 371.852 60.4844C371.852 60.0547 371.975 59.6641 372.223 59.3125C372.483 58.9609 372.802 58.668 373.18 58.4336C373.57 58.1862 373.987 57.9974 374.43 57.8672C374.885 57.724 375.302 57.6523 375.68 57.6523C376.031 57.6523 376.383 57.6979 376.734 57.7891C377.086 57.8672 377.418 57.9974 377.73 58.1797C378.043 58.349 378.323 58.5638 378.57 58.8242C378.831 59.0716 379.039 59.3646 379.195 59.7031C379.43 60.1849 379.618 60.6992 379.762 61.2461C379.905 61.7799 380.016 62.3333 380.094 62.9062C380.172 63.4661 380.224 64.0326 380.25 64.6055C380.276 65.1654 380.289 65.7122 380.289 66.2461ZM377.164 65.6211L377.105 64.293C377.079 64.293 377.053 64.293 377.027 64.293C377.001 64.2799 376.975 64.2734 376.949 64.2734C376.78 64.2734 376.565 64.319 376.305 64.4102C376.057 64.4883 375.816 64.6055 375.582 64.7617C375.348 64.9049 375.146 65.0677 374.977 65.25C374.82 65.4323 374.742 65.6211 374.742 65.8164C374.742 65.9987 374.807 66.1224 374.938 66.1875C375.068 66.2526 375.217 66.2852 375.387 66.2852C375.673 66.2852 375.979 66.2135 376.305 66.0703C376.63 65.9141 376.917 65.7643 377.164 65.6211Z" fill="#F6B70F"/>
</svg>
